<svg xmlns="http://www.w3.org/2000/svg" width="87" height="26" fill="none">
  <path fill="#fff" d="M38.84 10.07a8.6 8.6 0 0 0-1.35-.6 3.9 3.9 0 0 0-1.28-.24 2 2 0 0 0-1.17.3c-.28.2-.42.5-.42.9 0 .27.1.52.31.74.22.2.5.4.84.56.34.17.7.32 1.07.46.45.17.89.38 1.3.65.43.25.78.6 1.05 1.05.27.44.41 1.03.41 1.77a3.1 3.1 0 0 1-.46 1.63c-.3.5-.75.92-1.34 1.23a4.7 4.7 0 0 1-2.17.46 7.3 7.3 0 0 1-2.04-.3 6.51 6.51 0 0 1-1.94-.95l1.01-1.78a5.49 5.49 0 0 0 2.76 1.01c.27 0 .55-.03.82-.1.28-.1.52-.23.7-.42.18-.19.28-.45.28-.78 0-.35-.17-.65-.5-.9a4.4 4.4 0 0 0-1.19-.66c-.36-.14-.72-.3-1.1-.48a5.9 5.9 0 0 1-1.08-.64 3.26 3.26 0 0 1-.8-.96c-.2-.39-.3-.86-.3-1.42 0-.67.15-1.25.44-1.75.3-.49.73-.88 1.28-1.16.55-.3 1.18-.46 1.9-.49a6.5 6.5 0 0 1 3.84 1.12l-.87 1.75Zm2.5-2.8h2.3v11.58h-2.3V7.26Zm4.63 11.58V7.26h2.66a7.8 7.8 0 0 1 2.98.52 5.2 5.2 0 0 1 3.07 3.32c.23.72.35 1.44.35 2.16a5.56 5.56 0 0 1-1.74 4.1c-.53.48-1.15.85-1.86 1.11a6.6 6.6 0 0 1-2.24.38h-3.22Zm2.3-2.2h.53c1.16 0 2.09-.3 2.8-.9.7-.6 1.06-1.48 1.06-2.65a3.9 3.9 0 0 0-.38-1.84 3.16 3.16 0 0 0-2.02-1.65 3.9 3.9 0 0 0-.96-.16h-1.04v7.2Zm8.56-9.39h6.82v2.2h-4.53v2.48H63v2.2h-3.9v2.5h4.76v2.21h-7.04V7.26Zm12.22 0c1.46 0 2.58.36 3.36 1.07a3.6 3.6 0 0 1 1.18 2.84c0 .66-.14 1.31-.43 1.95a3.18 3.18 0 0 1-1.4 1.53l2.7 4.2h-2.67l-2.44-3.68h-1.32v3.68h-2.28V7.26h3.3Zm.39 5.7c.46 0 .82-.1 1.07-.28.27-.2.45-.43.55-.7.11-.27.16-.51.16-.73 0-.13-.02-.29-.06-.48a1.46 1.46 0 0 0-.76-1.1 1.9 1.9 0 0 0-.94-.2h-1.43v3.5h1.41Zm5.63.11c0-.8.15-1.55.45-2.26a6.08 6.08 0 0 1 3.16-3.2 5.65 5.65 0 0 1 2.3-.47c.81 0 1.57.15 2.29.47.71.31 1.35.75 1.9 1.3a5.82 5.82 0 0 1 0 8.35 6.09 6.09 0 0 1-4.19 1.72 5.82 5.82 0 0 1-4.2-1.72 6.08 6.08 0 0 1-1.71-4.19Zm2.36 0c0 .69.16 1.31.48 1.88a3.54 3.54 0 0 0 3.15 1.83c.66 0 1.26-.17 1.78-.5a3.6 3.6 0 0 0 1.72-3.21 3.76 3.76 0 0 0-1.75-3.23 3.35 3.35 0 0 0-1.81-.5 3.56 3.56 0 0 0-3.1 1.84 3.76 3.76 0 0 0-.47 1.9Z"/>
  <path fill="url(#a)" d="M12.05 0c-.38 0-.76.02-1.14.05V25.9a13.3 13.3 0 0 0 2.28 0V.05C12.82.02 12.44 0 12.05 0Z"/>
  <path fill="url(#b)" d="M18.89 1.92A13.6 13.6 0 0 0 16.83.9l-.4 1.13c-1.5 4.4-2.26 8.08-2.26 10.95 0 3.86 1.41 8.62 2.65 12.07.72-.28 1.41-.62 2.07-1.02-1.16-3.27-2.44-7.62-2.44-11.05 0-3.44 1.28-7.79 2.44-11.06Z"/>
  <path fill="url(#c)" d="M9.93 12.98C9.93 9.1 8.53 4.35 7.28.9c-.72.28-1.4.62-2.06 1.02C6.38 5.2 7.65 9.54 7.65 12.98c0 3.43-1.27 7.78-2.43 11.05.65.4 1.34.74 2.06 1.02l.39-1.13c1.5-4.4 2.26-8.08 2.26-10.94Z"/>
  <path fill="url(#d)" d="M23.34 17.37c-3.27-2.48-3.62-3.9-3.62-4.4 0-1.34 2.07-3.3 4.39-4.96A13 13 0 0 0 23.04 6c-.35.25-.72.5-1.08.79-3.05 2.3-4.53 4.33-4.53 6.2 0 1.86 1.48 3.89 4.53 6.2.36.27.73.54 1.08.78.42-.64.78-1.32 1.08-2.03l-.78-.56Z"/>
  <path fill="url(#e)" d="M6.67 12.98c0-1.85-1.45-3.88-4.44-6.19-.38-.3-.77-.58-1.14-.85C.68 6.58.31 7.26.02 7.96c2.3 1.67 4.37 3.66 4.37 5.02 0 1.35-2.08 3.34-4.37 5.01.3.7.65 1.38 1.07 2.02.37-.26.76-.55 1.14-.85 2.99-2.3 4.44-4.33 4.44-6.18Z"/>
  <defs>
    <linearGradient id="a" x1="12.08" x2="12.08" y1="25.96" y2="-.01" gradientUnits="userSpaceOnUse">
      <stop stop-color="#E5152C"/>
      <stop offset="1" stop-color="#FFB200"/>
    </linearGradient>
    <linearGradient id="b" x1="12.08" x2="12.08" y1="25.96" y2="-.01" gradientUnits="userSpaceOnUse">
      <stop stop-color="#E5152C"/>
      <stop offset="1" stop-color="#FFB200"/>
    </linearGradient>
    <linearGradient id="c" x1="12.08" x2="12.08" y1="25.96" y2="-.01" gradientUnits="userSpaceOnUse">
      <stop stop-color="#E5152C"/>
      <stop offset="1" stop-color="#FFB200"/>
    </linearGradient>
    <linearGradient id="d" x1="12.08" x2="12.08" y1="25.96" y2="-.01" gradientUnits="userSpaceOnUse">
      <stop stop-color="#E5152C"/>
      <stop offset="1" stop-color="#FFB200"/>
    </linearGradient>
    <linearGradient id="e" x1="12.08" x2="12.08" y1="25.96" y2="-.01" gradientUnits="userSpaceOnUse">
      <stop stop-color="#E5152C"/>
      <stop offset="1" stop-color="#FFB200"/>
    </linearGradient>
  </defs>
</svg>